<?xml version="1.0" encoding="utf-8"?>
<!-- Generator: Adobe Illustrator 18.1.1, SVG Export Plug-In . SVG Version: 6.00 Build 0)  -->
<svg version="1.1" id="Layer_1" xmlns="http://www.w3.org/2000/svg" xmlns:xlink="http://www.w3.org/1999/xlink" x="0px" y="0px"
	 viewBox="0 58 960 447" enable-background="new 0 58 960 447" xml:space="preserve">
<g>
	<polyline fill="none" stroke="#000000" stroke-width="4" stroke-miterlimit="10" points="952.5,494.2 716.6,429.6 480.5,494.2 
		244.6,429.6 8.6,494.2 	"/>
</g>
<g>
	<polyline fill="none" stroke="#000000" stroke-width="4" stroke-miterlimit="10" points="858.8,130.4 669.7,65.8 480.5,130.4 
		291.4,65.8 102.2,130.4 	"/>
</g>
<line fill="none" stroke="#000000" stroke-width="4" stroke-miterlimit="10" x1="9.9" y1="495" x2="102.2" y2="128.5"/>
<line fill="none" stroke="#000000" stroke-width="4" stroke-miterlimit="10" x1="951.1" y1="494.2" x2="858.8" y2="128.8"/>
<path stroke="#000000" stroke-miterlimit="10" d="M542,200.5l-122.8-0.1c-4.3,0-6.9,3.2-4.8,5.9l66,81.3c0.1,0.1,0.2,0.1,0.3,0
	l66.1-81.3C548.9,203.7,546.2,200.5,542,200.5z"/>
<path fill="none" stroke="#000000" stroke-width="4" stroke-miterlimit="10" d="M480.2,285.3l0.3,129.1L480.2,285.3z"/>
<path stroke="#000000" stroke-miterlimit="10" d="M542,422.1l-122.8,0.1c-4.3,0-6.9-0.5-4.8-1.1l66-14.7c0.1,0,0.2,0,0.3,0
	l66.1,14.5C548.9,421.5,546.2,422.1,542,422.1z"/>
<line fill="none" stroke="#000000" stroke-width="4" stroke-miterlimit="10" x1="500.4" y1="212.7" x2="540.3" y2="169.7"/>
<circle fill="none" stroke="#000000" stroke-width="4" stroke-miterlimit="10" cx="551" cy="158.9" r="15.1"/>
<text transform="matrix(1 0 0 1 324 349.8478)" font-family="'OldStandardTT-Bold'" font-size="60">HEN</text>
<text transform="matrix(1 0 0 1 500.4487 349.8474)" font-family="'OldStandardTT-Bold'" font-size="60">HUNT</text>
</svg>
